<?xml version="1.0" encoding="utf-8"?>
<!-- Generator: Adobe Illustrator 27.2.0, SVG Export Plug-In . SVG Version: 6.00 Build 0)  -->
<svg version="1.1" id="Layer_1" xmlns="http://www.w3.org/2000/svg" xmlns:xlink="http://www.w3.org/1999/xlink" x="0px" y="0px"
	 viewBox="0 0 532 532" style="enable-background:new 0 0 532 532;" xml:space="preserve">
<style type="text/css">
	.st0{fill:#64748B;}
</style>
<g>
	<path class="st0" d="M431.2,427.3c0,28-22.4,50.4-50.4,50.4H104.2c-27.4,0-50.4-22.4-50.4-50.4V151.2c0-27.4,22.4-50.4,50.4-50.4
		h159.6L318.1,47H104.2C47,47,0,93.5,0,151.2v276.1C0,485,47,532,104.2,532h276.1c57.1,0,104.2-47,104.2-104.7V213.9l-53.8,53.8
		l0,159.6L431.2,427.3z"/>
	<path class="st0" d="M520.2,44.8l-33-33c-15.7-15.7-41.4-15.7-57.1,0l-196,196l90.7,90.2l195.4-195.4
		C535.9,86.2,535.9,61,520.2,44.8L520.2,44.8z"/>
	<path class="st0" d="M170.8,383.6l73.9-24.6c15.1-5,28.6-13.4,40.3-23.5l-88.5-89c-10.1,12.3-18.5,25.2-23.5,40.3l-24.6,73.9
		C143.9,374.6,156.8,388.1,170.8,383.6L170.8,383.6z"/>
</g>
</svg>
