<?xml version="1.0" encoding="utf-8"?>
<!-- Generator: Adobe Illustrator 27.1.1, SVG Export Plug-In . SVG Version: 6.00 Build 0)  -->
<svg version="1.1" id="Layer_1" xmlns="http://www.w3.org/2000/svg" xmlns:xlink="http://www.w3.org/1999/xlink" x="0px" y="0px"
	 viewBox="0 0 1600 357.4" style="enable-background:new 0 0 1600 357.4;" xml:space="preserve">
<style type="text/css">
	.st0{clip-path:url(#SVGID_00000134934793111446021880000006041523331468318122_);fill:#23397B;}
	.st1{clip-path:url(#SVGID_00000134934793111446021880000006041523331468318122_);fill:#FFFFFF;}
	.st2{clip-path:url(#SVGID_00000134934793111446021880000006041523331468318122_);fill:#007FC4;}
</style>
<g>
	<defs>
		<rect id="SVGID_1_" width="1600" height="357.4"/>
	</defs>
	<clipPath id="SVGID_00000103251911347354011920000004838672927855981446_">
		<use xlink:href="#SVGID_1_"  style="overflow:visible;"/>
	</clipPath>
	<path style="clip-path:url(#SVGID_00000103251911347354011920000004838672927855981446_);fill:#23397B;" d="M1418.1,161.7
		c0,58.8,44.9,95.7,100.1,95.7c34.9,0,61.8-14.1,81.8-36.1V149h-89.3v39.7h42.4v15.5c-7.5,6.1-20.5,11.1-34.9,11.1
		c-30.2,0-51.6-23.3-51.6-53.5c0-30.2,21.4-53.5,51.6-53.5c17.5,0,31.6,9.7,39.1,21.9l39.9-21.1c-13.6-23-38.5-43-79-43
		C1463,66.1,1418.1,102.9,1418.1,161.7 M1394.2,254.1v-185h-48v106.5l-74.9-106.5h-49.1v185h47.7V142.3l78.2,111.8H1394.2z
		 M1189,69.1h-47.7v185h47.7V69.1z M1027.6,254.1v-73.5h86v-40.5h-86v-30.8h87.9V69.1H979.9v185H1027.6z M952.2,254.1v-40.2h-87.9
		v-33.3h86v-40.5h-86v-30.8h87.9V69.1H816.6v185H952.2z M783.3,69.1h-47.7v185h47.7V69.1z M660.8,130.1c0,12.8-10.5,20.8-23,20.8
		H600v-41.6h37.7C650.2,109.3,660.8,117.4,660.8,130.1 M710.1,254.1l-37.7-67.9c17.2-6.1,36.9-23.3,36.9-55.5
		c0-34.4-23.3-61.6-64.3-61.6h-92.6v185H600v-62.7h24.4l31.1,62.7H710.1z M411.5,180h48c11.6,0,18.3,8,18.3,17.5
		c0,10-6.9,16.9-18.3,16.9h-48V180z M411.5,108.8h46.3c9.7,0,16.4,6.7,16.4,15.8c0,9.2-6.7,16.1-16.4,16.1h-46.3V108.8z
		 M471.9,254.1c36.3,0,54.4-23.3,54.4-50.2c0-23.3-15.5-42.2-35.2-45.2c17.5-3.9,31.6-19.4,31.6-42.4c0-23.3-17.5-47.1-54.1-47.1
		H363.8v185H471.9z"/>
	<path style="clip-path:url(#SVGID_00000103251911347354011920000004838672927855981446_);fill:#23397B;" d="M279.9,139.9
		C279.9,62.7,217.2,0,139.9,0C62.7,0,0,62.7,0,139.9s62.7,139.9,139.9,139.9c27.7,0,53.5-8.1,75.3-22v99.5l64.3-0.2V157.4
		L279.9,139.9z"/>
	<path style="clip-path:url(#SVGID_00000103251911347354011920000004838672927855981446_);fill:#FFFFFF;" d="M47.8,139.1
		c0-51.2,41.5-92.7,92.7-92.7s92.7,41.5,92.7,92.7s-41.5,92.7-92.7,92.7c-18.4,0-35.5-5.4-49.9-14.6v65.9L48,283V150.6L47.8,139.1z"
		/>
	<path style="clip-path:url(#SVGID_00000103251911347354011920000004838672927855981446_);fill:#007FC4;" d="M183.2,140.9
		c0,22.5-18.3,40.8-40.8,40.8c-22.5,0-40.8-18.3-40.8-40.8s18.3-40.8,40.8-40.8C165,100.1,183.2,118.4,183.2,140.9"/>
</g>
</svg>
